<?xml version="1.0" encoding="UTF-8"?>
<svg width="392px" height="512px" viewBox="0 0 392 512" version="1.1" xmlns="http://www.w3.org/2000/svg" xmlns:xlink="http://www.w3.org/1999/xlink">
    <!-- Generator: Sketch 46.2 (44496) - http://www.bohemiancoding.com/sketch -->
    <title>alien</title>
    <desc>Created with Sketch.</desc>
    <defs></defs>
    <g id="Page-1" stroke="none" stroke-width="1" fill="none" fill-rule="evenodd">
        <g id="alien" fill-rule="nonzero" fill="#FFFFFF">
            <path d="M346.588,331.294 L346.588,414.118 C346.588,426.593 336.474,436.706 324,436.706 C311.526,436.706 301.412,426.593 301.412,414.118 C301.412,414.118 301.412,229.851 301.412,210.824 C301.412,158.614 265.947,117.741 218.589,107.77 L218.589,84.295 C232.088,76.482 241.177,61.896 241.177,45.177 C241.176,20.226 220.949,0 196,0 C171.051,0 150.824,20.226 150.824,45.176 C150.824,61.896 159.913,76.482 173.412,84.294 L173.412,107.769 C126.054,117.739 90.589,158.612 90.589,210.823 C90.589,229.85 90.589,414.117 90.589,414.117 C90.589,426.592 80.475,436.705 68.001,436.705 C55.527,436.705 45.413,426.592 45.413,414.117 L45.413,331.293 L0.235,331.293 L0.235,414.117 C0.235,468.089 44.145,511.999 98.117,511.999 L293.882,511.999 C347.854,511.999 391.764,468.089 391.764,414.117 L391.764,331.293 L346.588,331.293 L346.588,331.294 Z M196,376.471 C171.051,376.471 150.824,356.244 150.824,331.295 L241.177,331.295 C241.176,356.244 220.949,376.471 196,376.471 Z M196,286.118 C158.573,286.118 128.235,255.78 128.235,218.353 C128.235,180.927 158.573,150.588 196,150.588 C233.424,150.588 263.765,180.927 263.765,218.353 C263.765,255.78 233.424,286.118 196,286.118 Z" id="Shape"></path>
            <circle id="Oval" cx="196" cy="218.353" r="22.588"></circle>
            <circle id="Oval" cx="196" cy="218.353" r="22.588"></circle>
        </g>
    </g>
</svg>